<?xml version="1.0" encoding="utf-8"?>
<!-- Generator: Adobe Illustrator 16.0.0, SVG Export Plug-In . SVG Version: 6.00 Build 0)  -->
<!DOCTYPE svg PUBLIC "-//W3C//DTD SVG 1.1//EN" "http://www.w3.org/Graphics/SVG/1.1/DTD/svg11.dtd">
<svg version="1.1" id="Layer_1" xmlns="http://www.w3.org/2000/svg" xmlns:xlink="http://www.w3.org/1999/xlink" x="0px" y="0px"
	 width="40px" height="40px" viewBox="0 0 40 40" enable-background="new 0 0 40 40" xml:space="preserve">
<circle fill-rule="evenodd" clip-rule="evenodd" fill="#49A2AF" cx="20" cy="20" r="20"/>
<path fill-rule="evenodd" clip-rule="evenodd" fill="#FFFFFF" d="M24.843,18.782c-0.063,0.367-0.147,0.828-0.188,1.198
	c-0.024,0.21-0.118,0.131-0.298,0.13c-0.93-0.008-1.86-0.11-2.789-0.11C21.481,20,22,20,22,20c0,3,0,6,0,9c-2,0-3,0-4,0c0-3,0-6,0-9
	c-1,0-2,0-2,0s0-2,0-3c0,0,0.83,0,1.458,0c0,0-0.003-0.009,0-0.095c0.02-0.863-0.009-1.633,0.072-2.491
	c0.105-1.114,0.564-2.007,1.596-2.579c0.643-0.357,1.347-0.475,2.068-0.488c1.267-0.024,2.487,0.002,3.753,0.002
	c0.029,0,0.053,0.021,0.053,0.026c0,1.042,0,2.078,0,3.137C25,14.516,24.933,14,24.856,14c-0.865,0-1.729,0-2.593,0
	c-0.672,0-0.944,0.32-0.962,0.987C21.285,15.623,21.299,16,21.299,17c1.276,0,2.533,0,3.814,0
	C25.021,18,24.933,18.258,24.843,18.782z"/>
</svg>
