<?xml version="1.0" encoding="utf-8"?>
<!-- Generator: Adobe Illustrator 16.0.3, SVG Export Plug-In . SVG Version: 6.00 Build 0)  -->
<!DOCTYPE svg PUBLIC "-//W3C//DTD SVG 1.1//EN" "http://www.w3.org/Graphics/SVG/1.1/DTD/svg11.dtd">
<svg version="1.1" id="Layer_1" xmlns="http://www.w3.org/2000/svg" xmlns:xlink="http://www.w3.org/1999/xlink" x="0px" y="0px"
	 width="588px" height="140.441px" viewBox="0 0 588 140.441" enable-background="new 0 0 588 140.441" xml:space="preserve">
<path fill="#49A2AF" d="M22.382,76.601C-10.987,53.077-5.293,28.62,35.035,22.254L156.093,3.142
	c40.328-6.366,60.733,19.365,45.344,57.181l-17.083,41.985c-15.386,37.816-55.277,49.509-88.646,25.985L22.382,76.601z"/>
<g>
	<path fill="#FFFFFF" d="M225.777,85.171v7.665h8.934v7.242h-8.88v14.907h-8.564V77.56h18.237v7.612H225.777z"/>
	<path fill="#FFFFFF" d="M264.074,106.95c-0.476,1.798-1.225,3.366-2.247,4.705c-1.022,1.34-2.344,2.396-3.964,3.172
		c-1.622,0.774-3.577,1.162-5.868,1.162c-2.292,0-4.229-0.388-5.815-1.162c-1.586-0.775-2.881-1.832-3.885-3.172
		c-1.004-1.339-1.727-2.907-2.167-4.705c-0.441-1.797-0.661-3.735-0.661-5.814V77.56h8.511v22.836c0,1.057,0.061,2.044,0.185,2.96
		c0.123,0.917,0.344,1.701,0.661,2.352c0.317,0.653,0.74,1.172,1.269,1.56c0.528,0.389,1.216,0.582,2.062,0.582
		s1.533-0.193,2.062-0.582c0.528-0.387,0.951-0.907,1.269-1.56c0.317-0.651,0.537-1.436,0.661-2.352
		c0.123-0.916,0.185-1.903,0.185-2.96V77.56h8.458v23.576C264.788,103.215,264.55,105.153,264.074,106.95z"/>
	<path fill="#FFFFFF" d="M282.602,84.749v30.237h-8.299V84.749h-6.872V77.56h22.043v7.189H282.602z"/>
	<path fill="#FFFFFF" d="M316.724,106.95c-0.476,1.798-1.225,3.366-2.246,4.705c-1.022,1.34-2.345,2.396-3.965,3.172
		c-1.621,0.774-3.577,1.162-5.868,1.162s-4.229-0.388-5.814-1.162c-1.586-0.775-2.881-1.832-3.885-3.172
		c-1.004-1.339-1.727-2.907-2.167-4.705c-0.441-1.797-0.661-3.735-0.661-5.814V77.56h8.511v22.836c0,1.057,0.061,2.044,0.185,2.96
		c0.123,0.917,0.344,1.701,0.661,2.352c0.316,0.653,0.739,1.172,1.269,1.56c0.528,0.389,1.216,0.582,2.062,0.582
		s1.533-0.193,2.062-0.582c0.528-0.387,0.951-0.907,1.269-1.56c0.317-0.651,0.537-1.436,0.661-2.352
		c0.123-0.916,0.185-1.903,0.185-2.96V77.56h8.458v23.576C317.438,103.215,317.199,105.153,316.724,106.95z"/>
	<path fill="#FFFFFF" d="M339.084,114.985l-5.004-14.907h-2.477v14.907h-8.141V77.56h11.973c3.621,0,6.434,0.943,8.438,2.828
		c2.004,1.886,3.007,4.696,3.007,8.431c0,1.375-0.159,2.608-0.475,3.7c-0.316,1.093-0.729,2.027-1.238,2.802
		c-0.509,0.776-1.08,1.41-1.712,1.903c-0.633,0.494-1.247,0.846-1.844,1.057l6.379,16.704H339.084z M338.581,89.295
		c0-0.952-0.132-1.727-0.396-2.326c-0.264-0.599-0.607-1.075-1.03-1.427c-0.423-0.352-0.891-0.59-1.401-0.713
		c-0.511-0.123-1.013-0.185-1.506-0.185h-2.644v9.462h2.484c1.198,0,2.247-0.378,3.146-1.136
		C338.132,92.211,338.581,90.986,338.581,89.295z"/>
	<path fill="#FFFFFF" d="M352.061,114.985V77.56h18.079v7.454h-9.991v7.348h9.198v6.978h-9.198v8.035h10.625v7.612H352.061z"/>
	<path fill="#FFFFFF" d="M401.962,114.985l-1.533-6.819h-8.404l-1.533,6.819h-8.458l9.092-37.426h10.625l9.04,37.426H401.962z
		 M396.358,85.7h-0.211l-3.172,15.911h6.396L396.358,85.7z"/>
	<path fill="#FFFFFF" d="M429.819,114.985h-10.73L410.05,77.56h9.567l5.075,27.382h0.105l5.021-27.382h9.198L429.819,114.985z"/>
	<path fill="#FFFFFF" d="M442.295,114.985V77.56h8.511v37.426H442.295z"/>
	<path fill="#FFFFFF" d="M474.063,114.985l-1.533-6.819h-8.404l-1.533,6.819h-8.458l9.092-37.426h10.625l9.04,37.426H474.063z
		 M468.46,85.7h-0.211l-3.172,15.911h6.396L468.46,85.7z"/>
	<path fill="#FFFFFF" d="M497.006,84.749v30.237h-8.299V84.749h-6.872V77.56h22.043v7.189H497.006z"/>
	<path fill="#FFFFFF" d="M533.745,96.167c0,2.96-0.335,5.666-1.004,8.114c-0.67,2.45-1.622,4.538-2.854,6.264
		c-1.234,1.728-2.741,3.066-4.52,4.018c-1.78,0.951-3.78,1.427-6,1.427c-2.221,0-4.221-0.476-6-1.427
		c-1.78-0.951-3.286-2.29-4.52-4.018c-1.234-1.727-2.186-3.814-2.854-6.264c-0.67-2.449-1.005-5.154-1.005-8.114
		c0-2.96,0.326-5.647,0.979-8.061c0.651-2.414,1.594-4.475,2.828-6.185c1.233-1.709,2.739-3.03,4.52-3.964
		c1.779-0.934,3.797-1.401,6.053-1.401c2.22,0,4.22,0.467,6,1.401c1.778,0.934,3.285,2.255,4.52,3.964
		c1.232,1.71,2.185,3.771,2.854,6.185C533.41,90.52,533.745,93.207,533.745,96.167z M525.076,96.167c0-1.62-0.124-3.127-0.37-4.52
		c-0.247-1.392-0.608-2.598-1.084-3.621c-0.476-1.021-1.066-1.824-1.771-2.405c-0.705-0.582-1.533-0.873-2.484-0.873
		c-0.952,0-1.789,0.291-2.511,0.873c-0.723,0.581-1.322,1.383-1.798,2.405c-0.476,1.023-0.828,2.229-1.057,3.621
		c-0.23,1.393-0.344,2.899-0.344,4.52c0,1.622,0.113,3.137,0.344,4.546c0.229,1.41,0.581,2.625,1.057,3.647
		c0.476,1.022,1.075,1.833,1.798,2.432c0.722,0.6,1.559,0.898,2.511,0.898c0.951,0,1.779-0.299,2.484-0.898
		c0.704-0.599,1.295-1.409,1.771-2.432c0.476-1.022,0.837-2.238,1.084-3.647C524.952,99.304,525.076,97.788,525.076,96.167z"/>
	<path fill="#FFFFFF" d="M554.493,114.985l-5.004-14.907h-2.477v14.907h-8.141V77.56h11.973c3.621,0,6.434,0.943,8.438,2.828
		c2.004,1.886,3.007,4.696,3.007,8.431c0,1.375-0.159,2.608-0.475,3.7c-0.316,1.093-0.729,2.027-1.238,2.802
		c-0.509,0.776-1.08,1.41-1.712,1.903c-0.633,0.494-1.247,0.846-1.844,1.057l6.379,16.704H554.493z M553.99,89.295
		c0-0.952-0.132-1.727-0.396-2.326c-0.264-0.599-0.607-1.075-1.03-1.427c-0.423-0.352-0.891-0.59-1.401-0.713
		c-0.511-0.123-1.013-0.185-1.506-0.185h-2.644v9.462h2.484c1.198,0,2.247-0.378,3.146-1.136
		C553.541,92.211,553.99,90.986,553.99,89.295z"/>
	<path fill="#FFFFFF" d="M582.958,86.493c-0.634-0.74-1.374-1.312-2.22-1.718c-0.846-0.404-1.728-0.608-2.644-0.608
		c-0.951,0-1.806,0.301-2.563,0.9c-0.758,0.601-1.137,1.589-1.137,2.965c0,1.165,0.388,2.074,1.163,2.727
		c0.774,0.653,1.921,1.369,3.437,2.145c0.851,0.424,1.746,0.927,2.687,1.509c0.939,0.583,1.801,1.297,2.581,2.145
		c0.78,0.847,1.428,1.861,1.942,3.044c0.514,1.183,0.771,2.586,0.771,4.21c0,2.012-0.319,3.786-0.958,5.322
		c-0.639,1.535-1.498,2.806-2.58,3.812s-2.331,1.765-3.747,2.277c-1.416,0.511-2.882,0.767-4.397,0.767
		c-2.255,0-4.308-0.423-6.158-1.269c-1.85-0.846-3.339-1.832-4.467-2.96l4.335-6.343c0.811,0.846,1.744,1.525,2.802,2.036
		c1.057,0.511,2.132,0.766,3.225,0.766c1.021,0,1.885-0.334,2.59-1.004c0.705-0.669,1.058-1.604,1.058-2.802
		c0-1.233-0.423-2.211-1.269-2.934c-0.846-0.722-2.08-1.489-3.7-2.3c-1.023-0.493-1.982-1.039-2.882-1.639
		c-0.898-0.599-1.691-1.321-2.378-2.167c-0.688-0.846-1.226-1.832-1.612-2.96c-0.389-1.127-0.582-2.466-0.582-4.018
		c0-2.079,0.344-3.867,1.031-5.365c0.687-1.498,1.586-2.723,2.695-3.674c1.11-0.952,2.344-1.656,3.7-2.115
		c1.356-0.458,2.723-0.687,4.098-0.687c2.043,0,3.876,0.333,5.497,0.998c1.62,0.665,2.978,1.575,4.07,2.73L582.958,86.493z"/>
</g>
<g>
	<path fill="#FFFFFF" d="M254.55,11.537H262v15.523c0,11.23-8.006,18.441-18.235,18.441c-9.786,0-17.848-8.092-17.848-18.552
		c0-3.632,0.223-5.504,1.167-8.422h7.784c0,0-1.668,3.358-1.668,8.422c0,5.946,5.171,11.121,10.564,11.121
		c5.725,0,10.786-4.459,10.786-11.285V11.537z M248.212,15.831v6.385h-7.618v-6.385H248.212z"/>
	<path fill="#FFFFFF" d="M277.68,36.033h-7.451V0.362h7.451V36.033z"/>
	<path fill="#FFFFFF" d="M287.798,45.446c-3.446-0.275-6.171-1.541-6.171-1.541l-1.223-6.111c0,0,3.169,1.266,6.394,1.266
		c2.668,0,6.838-1.651,6.894-6.881V13.244h7.562v10.404c0.11,3.082,2.057,5.064,5.337,5.064h3.78v7.322h-3.336
		c-2.557,0-4.502-0.716-5.893-1.707C300.309,42.034,294.025,45.941,287.798,45.446z"/>
	<path fill="#FFFFFF" d="M308.814,45.501v-6.331h7.562v6.331H308.814z M317.487,36.033c3.447,0,6.339-1.542,7.673-3.854
		c1.445,1.981,3.892,3.854,7.951,3.854h3.28v-7.322h-3.726c-3.335,0-5.337-2.091-5.337-5.339V13.244h-7.506v11.064
		c0,3.138-1.557,4.404-4.448,4.404h-5.504v7.322H317.487z M319.823,45.501v-6.331h7.562v6.331H319.823z"/>
	<path fill="#FFFFFF" d="M378.313,28.768h8.729v7.266h-51.15v-7.322h7.005V0.362h7.506l-0.611,17.175
		c4.226-5.064,10.897-6.661,14.399-6.661c6.894,0,15.234,4.294,15.234,12.881c0,1.872-0.445,3.523-1.057,5.01H378.313z
		 M365.914,28.711c3.003,0,5.783-2.146,5.783-4.844c0-4.569-4.726-5.89-7.062-6.055c-8.451-0.606-13.733,6.386-14.734,10.899
		H365.914z"/>
	<path fill="#FFFFFF" d="M386.765,36.033v-7.322h6.562c2.001,0,3.225-1.156,3.225-3.302V0.362h7.506v24.606
		c0,3.137-0.723,11.064-10.064,11.064H386.765z"/>
	<path fill="#FFFFFF" d="M419.734,36.033h-7.449V0.362h7.449V36.033z"/>
	<path fill="#FFFFFF" d="M469.662,9.665c8.618,0,13.177,6.771,13.177,13.102c0,3.083,0.778,5.945,3.78,5.945h4.893v7.322h-4.503
		c-3.558,0-6.172-1.597-7.839-3.578c-2.28,2.422-5.394,4.184-9.508,4.184c-7.395,0-11.842-5.615-12.898-11.285
		c-0.779,0.386-1.558,0.551-2.725,0.551h-4.392c-2.002,0-3.226,1.211-3.226,3.303v16.294h-7.505v-15.91
		c0-3.136,0.722-11.008,10.062-11.008h6.005c1.224,0,2.113-0.496,2.724-1.431C459.6,13.022,463.657,9.665,469.662,9.665z
		 M475.109,22.767c0-3.909-1.333-7.102-5.447-7.102c-4.06,0-5.394,3.193-5.394,7.102c0,4.404,1.334,7.542,5.394,7.542
		C473.776,30.309,475.109,27.17,475.109,22.767z"/>
	<path fill="#FFFFFF" d="M504.523,28.711h18.014v7.322h-31.246v-7.322h5.505v-4.679c0-6.991,3.947-13.928,13.12-13.928
		c6.506,0,11.731,4.35,11.731,11.725h-7.45c-0.222-3.302-1.891-4.458-4.671-4.458c-3.112,0-5.003,2.478-5.003,6.606V28.711z"/>
	<path fill="#FFFFFF" d="M538.217,36.033h-7.45V0.362h7.45V36.033z"/>
	<path fill="#FFFFFF" d="M548.337,45.446c-3.446-0.275-6.172-1.541-6.172-1.541l-1.223-6.111c0,0,3.169,1.266,6.394,1.266
		c2.668,0,6.839-1.651,6.894-6.881V13.244h7.562v10.404c0.11,3.082,2.056,5.064,5.337,5.064h3.781v7.322h-3.337
		c-2.557,0-4.502-0.716-5.894-1.707C560.847,42.034,554.563,45.941,548.337,45.446z"/>
	<path fill="#FFFFFF" d="M570.632,36.033v-7.322h6.56c2.002,0,3.226-1.156,3.226-3.302V11.537h7.506v13.432
		c0,3.137-0.724,11.064-10.063,11.064H570.632z M586.31,39.171v6.331h-7.616v-6.331H586.31z"/>
</g>
<g>
	<defs>
		<path id="SVGID_1_" d="M22.382,76.601C-10.987,53.077-5.293,28.62,35.035,22.254L156.093,3.142
			c40.328-6.366,60.733,19.365,45.344,57.181l-17.083,41.985c-15.386,37.816-55.277,49.509-88.646,25.985L22.382,76.601z"/>
	</defs>
	<clipPath id="SVGID_2_">
		<use xlink:href="#SVGID_1_"  overflow="visible"/>
	</clipPath>
	<g clip-path="url(#SVGID_2_)">
		<g>
			<g>
				<g id="_x36_fl93k_3_">
					<g>
						<path fill-rule="evenodd" clip-rule="evenodd" fill="#221F1F" d="M45.275,127.229c-0.764-1.929-0.087-2.792,1.605-3.563
							c5.77-2.634,11.489-5.398,17.159-8.246c2.896-1.452,4.617-3.726,5.009-7.194c0.428-3.824,1.512-7.571,2.228-11.368
							c0.203-1.068,0.491-2.342,0.121-3.268c-2.975-7.361-3.401-15.085-3.506-22.865c-0.034-2.523-0.087-5.063,0.13-7.571
							c0.125-1.449,0.783-2.852,1.338-4.745c-0.441-0.123-1.503-0.417-2.777-0.769c1.562-2.584,3.123-4.917,6.027-6.229
							c7.214-3.262,14.796-3.87,22.499-3.206c11.23,0.972,21.994,3.946,32.492,8.011c2.2,0.853,2.571,1.897,1.896,3.972
							c-0.331,1.025-0.249,2.308,0.021,3.381c2.15,8.593,4.451,17.155,6.56,25.761c0.462,1.878,0.495,3.9,0.454,5.852
							c-0.097,4.914-1.655,6.911-6.557,8.454c1.342,3.375,1.394,6.568-3.111,8.591c1.92,1.258,3.271,2.159,4.638,3.032
							c4.646,2.964,9.333,5.867,13.918,8.921c0.9,0.601-49.158,14.981-48.165,16.264C62.493,140.441,79.138,127.229,45.275,127.229z
							 M72.832,60.396c-1.025,4.462-2.036,8.373-2.78,12.333c-0.356,1.901-0.642,4.008-0.194,5.832
							c1.684,6.866,3.109,13.883,5.704,20.417c3.705,9.323,9.018,10.414,16.936,4.151c8.09-6.398,12.765-15.017,15.173-24.885
							c0.63-2.582,0.71-5.378,0.58-8.052c-0.271-5.579-3.312-8.259-8.759-8.398c-7.005-0.179-14.007-0.465-21.008-0.78
							C76.454,60.922,74.437,60.575,72.832,60.396z"/>
						<linearGradient id="SVGID_3_" gradientUnits="userSpaceOnUse" x1="69.6279" y1="83.729" x2="108.3032" y2="83.729">
							<stop  offset="0" style="stop-color:#EDD0A9"/>
							<stop  offset="1" style="stop-color:#CFA077"/>
						</linearGradient>
						<path fill-rule="evenodd" clip-rule="evenodd" fill="url(#SVGID_3_)" d="M72.832,60.396c1.605,0.18,3.623,0.527,5.652,0.618
							c7,0.315,14.003,0.602,21.008,0.78c5.447,0.139,8.488,2.819,8.759,8.398c0.13,2.674,0.05,5.47-0.58,8.052
							c-2.408,9.868-7.083,18.487-15.173,24.885c-7.918,6.263-13.231,5.172-16.936-4.151c-2.595-6.534-4.02-13.551-5.704-20.417
							c-0.448-1.824-0.162-3.931,0.194-5.832C70.796,68.768,71.807,64.858,72.832,60.396z"/>
					</g>
				</g>
			</g>
			<g>
				<g>
					<path fill="#221F1F" d="M70.145,53.035l-3.931,4.681c0,0,1.684,4.026,46.906,2.06c12.356-0.281,15.167-3.1,15.167-3.1
						S90.725,40.22,70.145,53.035z"/>
					
						<linearGradient id="SVGID_4_" gradientUnits="userSpaceOnUse" x1="1951.0566" y1="53.7466" x2="1910.4244" y2="60.1128" gradientTransform="matrix(-1 0 0 1 2012.3223 0)">
						<stop  offset="0" style="stop-color:#D1D2D3"/>
						<stop  offset="0.0072" style="stop-color:#CACBCC"/>
						<stop  offset="0.0877" style="stop-color:#989697"/>
						<stop  offset="0.1746" style="stop-color:#726F6F"/>
						<stop  offset="0.2669" style="stop-color:#565352"/>
						<stop  offset="0.3661" style="stop-color:#433F3F"/>
						<stop  offset="0.4748" style="stop-color:#343131"/>
						<stop  offset="0.598" style="stop-color:#2A2727"/>
						<stop  offset="0.7479" style="stop-color:#242121"/>
						<stop  offset="1" style="stop-color:#221F1F"/>
					</linearGradient>
					<path fill="url(#SVGID_4_)" d="M67.654,56.358c0,0,39.137,2.06,44.565,1.872c0.75-0.188,2.059,1.684,2.059,1.684
						s-33.516,1.5-46.624-1.777C66.717,57.667,65.406,57.481,67.654,56.358z"/>
				</g>
				<g>
					<path fill="#221F1F" d="M139.511,44.158c0,0-27.103-21.347-45.922-24.998c-1.966-0.282-26.497-4.494-32.488,16.992
						c0,1.544-0.514,8.426,6.366,12.919c0-0.139,39.324-14.324,59.967,3.651c0.141,0.142,1.358,0.517,1.358,0.517
						S143.396,55.392,139.511,44.158z"/>
					<path fill-rule="evenodd" clip-rule="evenodd" fill="#FAAE43" d="M68.89,49.233l0.845,3.933c0,0,17.976-14.043,60.81,4.354
						c0.422,0.14,1.263-3.651,1.263-3.651S90.379,35.33,68.89,49.233z"/>
					
						<linearGradient id="SVGID_5_" gradientUnits="userSpaceOnUse" x1="1923.9424" y1="43.2207" x2="1881.6244" y2="64.9418" gradientTransform="matrix(-1 0 0 1 2012.3223 0)">
						<stop  offset="0" style="stop-color:#414142"/>
						<stop  offset="1" style="stop-color:#231F20"/>
					</linearGradient>
					<path fill-rule="evenodd" clip-rule="evenodd" fill="url(#SVGID_5_)" d="M68.049,45.16l0.841,3.934
						c0,0,20.227-13.483,63.057,4.914c0.423,0.141,1.266-3.651,1.266-3.651S89.538,31.257,68.049,45.16z"/>
				</g>
			</g>
		</g>
		<g>
			
				<linearGradient id="SVGID_6_" gradientUnits="userSpaceOnUse" x1="4225.4922" y1="72.0781" x2="4163.3867" y2="79.7613" gradientTransform="matrix(-1 0 0 1 4333.8906 0)">
				<stop  offset="0" style="stop-color:#EDD0A9"/>
				<stop  offset="1" style="stop-color:#CFA077"/>
			</linearGradient>
			<path fill="url(#SVGID_6_)" d="M119.208,48.899c0,0,2.883,8.644,1.282,11.044c0,0.161-4.159,5.603-0.399,12.646
				c0.236,0.321,5.521,14.887,7.441,18.087c1.118,3.042,3.683,7.843,7.204,8.964c1.121,0.161,1.761,0.321,2.082,1.44
				c-0.164,0.482,0.479,4.323,1.601,5.283c1.277,1.92,3.519,5.122,8,1.601c3.204-2.561,26.893-16.328,31.693-16.967
				c0-0.48-2.881-17.127-2.881-17.127l-3.041-24.97c0,0-42.096-13.126-52.342,0"/>
			<g>
				<path fill="#221F1F" d="M164.042,50.982l0.281,0.516l3.281,5.983c0,0,0.211,12.161-1.779,16.144
					c-1.783,2.098-13.943,12.37-14.364,13.209c-0.417,0-10.273,6.48-10.273,6.48l-2.096-1.659l-0.838-5.03h-4.401l-1.048,4.401
					l-1.469,2.288l-3.355-4.594c0,0-1.887-0.839-1.677,0.42c0.209,1.257,2.31,9.643,8.386,10.692c6.081,0.419,13.628,0,13.628,0
					s7.547-2.309,9.434-3.985c2.099-1.676,14.886-13.207,14.886-13.207s-1.677,0.208-2.724-2.098
					c-0.422-1.258,1.467-19.881,1.467-19.881s4.403-9.681,7.967,1.852c-0.632,5.031-0.746,9.216-5.035,11.32
					c-0.628,1.677,0.42,6.5,0.42,6.5s3.564,3.354,4.614-0.21c1.046-3.562,3.565-28.093,1.887-33.334
					c-1.259-0.419-18.243-3.774-18.243,0"/>
				<polygon fill="#221F1F" points="148.771,88.272 147.516,83.327 137.292,80.338 135.408,81.125 133.521,80.338 129.275,83.168 
					127.858,89.144 126.289,89.144 126.289,83.012 131.477,76.721 134.621,78.138 136.508,76.721 148.771,82.068 150.817,88.272 
									"/>
			</g>
			
				<linearGradient id="SVGID_7_" gradientUnits="userSpaceOnUse" x1="4166.7461" y1="61.0947" x2="4155.0083" y2="69.4179" gradientTransform="matrix(-1 0 0 1 4333.8906 0)">
				<stop  offset="0" style="stop-color:#EDD0A9"/>
				<stop  offset="1" style="stop-color:#CFA077"/>
			</linearGradient>
			<path fill="url(#SVGID_7_)" d="M171.749,58.864l-1.492,9.817c0,0,0,10.031,5.76,4.482c2.346-3.627,5.337-7.896,1.28-14.299
				C176.871,58.01,174.522,55.022,171.749,58.864z"/>
			<g>
				<g>
					<path fill="#221F1F" d="M115.528,49.36l-4.484,5.336c0,0,1.922,4.589,53.463,2.347c14.084-0.321,17.286-3.533,17.286-3.533
						S138.98,34.754,115.528,49.36z"/>
					
						<linearGradient id="SVGID_8_" gradientUnits="userSpaceOnUse" x1="4228.4863" y1="50.1694" x2="4182.1738" y2="57.4256" gradientTransform="matrix(-1 0 0 1 4333.8906 0)">
						<stop  offset="0" style="stop-color:#D1D2D3"/>
						<stop  offset="0.0072" style="stop-color:#CACBCC"/>
						<stop  offset="0.0877" style="stop-color:#989697"/>
						<stop  offset="0.1746" style="stop-color:#726F6F"/>
						<stop  offset="0.2669" style="stop-color:#565352"/>
						<stop  offset="0.3661" style="stop-color:#433F3F"/>
						<stop  offset="0.4748" style="stop-color:#343131"/>
						<stop  offset="0.598" style="stop-color:#2A2727"/>
						<stop  offset="0.7479" style="stop-color:#242121"/>
						<stop  offset="1" style="stop-color:#221F1F"/>
					</linearGradient>
					<path fill="url(#SVGID_8_)" d="M112.687,53.146c0,0,44.607,2.347,50.793,2.134c0.854-0.213,2.349,1.919,2.349,1.919
						s-38.2,1.711-53.142-2.025C111.621,54.64,110.125,54.426,112.687,53.146z"/>
				</g>
				<g>
					<path fill="#221F1F" d="M194.59,39.241c0,0-30.894-24.33-52.343-28.493c-2.241-0.319-30.2-5.122-37.031,19.369
						c0,1.76-0.584,9.604,7.257,14.727c0-0.161,44.82-16.328,68.351,4.161c0.159,0.161,1.547,0.587,1.547,0.587
						S199.018,52.046,194.59,39.241z"/>
					<path fill-rule="evenodd" clip-rule="evenodd" fill="#FAAE43" d="M114.098,45.027l0.961,4.482c0,0,20.488-16.006,69.308,4.96
						c0.48,0.161,1.441-4.161,1.441-4.161S138.587,29.18,114.098,45.027z"/>
					
						<linearGradient id="SVGID_9_" gradientUnits="userSpaceOnUse" x1="4197.5811" y1="38.1719" x2="4149.3462" y2="62.9299" gradientTransform="matrix(-1 0 0 1 4333.8906 0)">
						<stop  offset="0" style="stop-color:#414142"/>
						<stop  offset="1" style="stop-color:#231F20"/>
					</linearGradient>
					<path fill-rule="evenodd" clip-rule="evenodd" fill="url(#SVGID_9_)" d="M113.136,40.386l0.961,4.481
						c0,0,23.05-15.367,71.872,5.602c0.479,0.16,1.439-4.162,1.439-4.162S137.628,24.539,113.136,40.386z"/>
				</g>
			</g>
			<path fill-rule="evenodd" clip-rule="evenodd" fill="#E7E7E7" d="M177.167,86.675h6.081l5.441,18.796l14.192,9.055v21.188
				l-101.096,11.665c0,0,20.637-27.296,26.08-31.035c1.601-1.497,9.283-9.821,8.643-12.382c0.321-2.24,2.241,6.082,7.684,5.764
				c2.239-1.28,11.627-7.685,14.295-9.286c2.672-1.6,17.075-9.429,19.958-11.597C177.483,88.595,177.167,86.675,177.167,86.675z"/>
		</g>
	</g>
</g>
</svg>
