<?xml version="1.0" encoding="utf-8"?>
<!-- Generator: Adobe Illustrator 16.0.0, SVG Export Plug-In . SVG Version: 6.00 Build 0)  -->
<!DOCTYPE svg PUBLIC "-//W3C//DTD SVG 1.1//EN" "http://www.w3.org/Graphics/SVG/1.1/DTD/svg11.dtd">
<svg version="1.1" id="Layer_1" xmlns="http://www.w3.org/2000/svg" xmlns:xlink="http://www.w3.org/1999/xlink" x="0px" y="0px"
	 width="40px" height="40px" viewBox="0 0 40 40" enable-background="new 0 0 40 40" xml:space="preserve">
<circle fill-rule="evenodd" clip-rule="evenodd" fill="#49A2AF" cx="20" cy="20" r="20"/>
<g id="_x37_O1YYc.tif">
	<g>
		<path fill="#FFFFFF" d="M30,13.44c0,4.375,0,8.75,0,13.125c-0.021,0.047-0.055,0.092-0.061,0.141
			c-0.203,1.838-1.754,3.283-3.787,3.285c-4.102,0.007-8.203,0.016-12.303-0.005c-1.543-0.008-2.732-0.692-3.432-2.097
			c-0.203-0.409-0.281-0.881-0.418-1.324c0-4.375,0-8.75,0-13.125c0.023-0.059,0.059-0.117,0.066-0.178
			c0.184-1.309,0.873-2.265,2.049-2.843c0.41-0.201,0.881-0.282,1.322-0.417c4.375,0,8.75,0,13.125,0
			c0.059,0.023,0.117,0.058,0.178,0.067c1.309,0.183,2.266,0.873,2.844,2.048C29.785,12.528,29.865,12.998,30,13.44z M28.418,16.945
			c0.025-0.091,0.045-0.128,0.045-0.165c0.002-0.938,0.01-1.875,0.004-2.812c-0.002-0.246-0.01-0.499-0.066-0.736
			c-0.266-1.078-1.123-1.697-2.355-1.698c-4.023-0.004-8.047-0.001-12.07,0c-0.143,0-0.285,0.008-0.428,0.019
			c-1.059,0.081-1.945,0.94-1.988,2.005c-0.043,1.027-0.016,2.057-0.031,3.084c-0.004,0.245,0.094,0.311,0.322,0.309
			c0.859-0.009,1.719,0.006,2.578-0.015c0.135-0.003,0.295-0.123,0.395-0.234c0.318-0.359,0.576-0.777,0.922-1.105
			c2.848-2.7,7.26-2.181,9.422,1.09c0.07,0.107,0.203,0.244,0.309,0.246C26.447,16.953,27.422,16.945,28.418,16.945z M24.619,19.983
			c-0.008-2.555-2.076-4.606-4.635-4.601c-2.549,0.005-4.609,2.08-4.604,4.634c0.008,2.532,2.102,4.613,4.635,4.605
			C22.547,24.613,24.627,22.518,24.619,19.983z"/>
		<path fill-rule="evenodd" clip-rule="evenodd" fill="#FFFFFF" d="M26.223,12.279c0.262,0,0.523-0.016,0.783,0.003
			c0.42,0.03,0.691,0.283,0.709,0.695c0.023,0.549,0.025,1.1,0,1.648c-0.02,0.43-0.316,0.692-0.787,0.712
			c-0.484,0.02-0.969,0.021-1.453-0.001c-0.506-0.023-0.791-0.318-0.811-0.83c-0.018-0.471-0.02-0.943,0-1.414
			c0.021-0.532,0.309-0.799,0.852-0.82c0.234-0.009,0.471-0.001,0.707-0.001C26.223,12.274,26.223,12.276,26.223,12.279z"/>
		<path fill-rule="evenodd" clip-rule="evenodd" fill="#FFFFFF" d="M17.371,18.772c0.123,1.102,0.715,1.677,1.635,1.635
			c0.76-0.035,1.377-0.666,1.4-1.431c0.027-0.899-0.557-1.491-1.58-1.595c0.801-0.604,2.434-0.318,3.283,0.576
			c1.045,1.101,1.1,2.777,0.125,3.94c-0.945,1.133-2.643,1.369-3.875,0.54C17.182,21.646,16.729,20.044,17.371,18.772z"/>
	</g>
</g>
</svg>
