<?xml version="1.0" encoding="utf-8"?>
<!-- Generator: Adobe Illustrator 16.0.0, SVG Export Plug-In . SVG Version: 6.00 Build 0)  -->
<!DOCTYPE svg PUBLIC "-//W3C//DTD SVG 1.1//EN" "http://www.w3.org/Graphics/SVG/1.1/DTD/svg11.dtd">
<svg version="1.1" id="Layer_1" xmlns="http://www.w3.org/2000/svg" xmlns:xlink="http://www.w3.org/1999/xlink" x="0px" y="0px"
	 width="40px" height="40px" viewBox="0 0 40 40" enable-background="new 0 0 40 40" xml:space="preserve">
<circle fill-rule="evenodd" clip-rule="evenodd" fill="#49A2AF" cx="20" cy="20" r="20"/>
<g id="JpjBGj.tif_1_">
	<g>
		<path fill="#FFFFFF" d="M20.778,17.544c-0.983,0-1.949,0-2.923,0c0,3.259,0,6.514,0,9.768c1.018,0,2.027,0,3.046,0
			c0-0.057,0-0.105,0-0.154c0.002-1.631,0.003-3.262,0.005-4.893c0.001-0.391,0.043-0.777,0.161-1.151
			c0.13-0.412,0.358-0.75,0.756-0.948c0.332-0.165,0.688-0.192,1.051-0.177c0.587,0.023,1.034,0.353,1.228,0.908
			c0.147,0.42,0.182,0.856,0.182,1.295c0.002,1.661,0.001,3.322,0.001,4.982c0,0.045,0,0.09,0,0.141c1.023,0,2.033,0,3.049,0
			c0.003-0.029,0.008-0.056,0.008-0.082c-0.012-2.08-0.019-4.161-0.04-6.242c-0.005-0.537-0.109-1.066-0.274-1.579
			c-0.307-0.944-0.899-1.617-1.865-1.914c-0.757-0.232-1.531-0.282-2.308-0.11c-0.728,0.161-1.338,0.528-1.803,1.119
			c-0.092,0.117-0.171,0.244-0.272,0.391C20.778,18.432,20.778,17.994,20.778,17.544z M15.954,27.318c0-3.266,0-6.519,0-9.771
			c-1.021,0-2.03,0-3.042,0c0,3.262,0,6.516,0,9.771C13.929,27.318,14.937,27.318,15.954,27.318z M14.423,16.218
			c0.979,0,1.776-0.787,1.776-1.754c0.001-0.975-0.762-1.781-1.77-1.782c-0.987-0.001-1.763,0.777-1.77,1.77
			C12.656,15.424,13.452,16.218,14.423,16.218z"/>
	</g>
</g>
</svg>
