<?xml version="1.0" encoding="utf-8"?>
<!-- Generator: Adobe Illustrator 16.0.0, SVG Export Plug-In . SVG Version: 6.00 Build 0)  -->
<!DOCTYPE svg PUBLIC "-//W3C//DTD SVG 1.1//EN" "http://www.w3.org/Graphics/SVG/1.1/DTD/svg11.dtd">
<svg version="1.1" id="Layer_1" xmlns="http://www.w3.org/2000/svg" xmlns:xlink="http://www.w3.org/1999/xlink" x="0px" y="0px"
	 width="140px" height="140px" viewBox="0 0 140 140" enable-background="new 0 0 140 140" xml:space="preserve">
<g>
	<path d="M79.578,54.01c0-5.292-4.287-9.578-9.578-9.578s-9.578,4.286-9.578,9.578c0,5.282,4.287,9.569,9.578,9.569
		S79.578,59.292,79.578,54.01z"/>
	<path d="M70,0C31.34,0,0,31.34,0,70s31.34,70,70,70s70-31.34,70-70S108.66,0,70,0z M70,31.438
		c12.717,0,23.023,10.307,23.023,23.024c0,9.117-11.846,26.566-18.545,35.709c-1.047,1.432-2.703,2.277-4.479,2.277
		c-1.768,0-3.434-0.846-4.48-2.277c-6.697-9.143-18.545-26.592-18.545-35.709C46.975,41.744,57.281,31.438,70,31.438z M70,108.563
		c-19.559,0-39.367-5.316-39.367-15.472c0-6.923,9.201-11.595,21.248-13.872c1.232,1.984,2.57,4.044,4.027,6.187
		c-12.215,1.826-18.469,5.735-18.469,7.686c0,2.587,11.076,8.665,32.561,8.665s32.561-6.078,32.561-8.665
		c0-1.95-6.254-5.859-18.471-7.686c1.457-2.143,2.797-4.202,4.027-6.187c12.049,2.277,21.25,6.949,21.25,13.872
		C109.367,103.247,89.559,108.563,70,108.563z"/>
</g>
</svg>
