<?xml version="1.0" encoding="utf-8"?>
<!-- Generator: Adobe Illustrator 16.0.0, SVG Export Plug-In . SVG Version: 6.00 Build 0)  -->
<!DOCTYPE svg PUBLIC "-//W3C//DTD SVG 1.1//EN" "http://www.w3.org/Graphics/SVG/1.1/DTD/svg11.dtd">
<svg version="1.1" id="Layer_1" xmlns="http://www.w3.org/2000/svg" xmlns:xlink="http://www.w3.org/1999/xlink" x="0px" y="0px"
	 width="140px" height="140px" viewBox="0 0 140 140" enable-background="new 0 0 140 140" xml:space="preserve">
<g>
	<circle cx="59.234" cy="35.534" r="0.75"/>
	<path d="M55.832,36.732c0.663,0,1.202-0.535,1.202-1.199s-0.539-1.2-1.202-1.2c-0.66,0-1.199,0.536-1.199,1.2
		S55.172,36.732,55.832,36.732z"/>
	<path d="M66.402,36.85h7.195c0.258,0,0.469-0.211,0.469-0.469c0-0.258-0.211-0.469-0.469-0.469h-7.195
		c-0.258,0-0.469,0.211-0.469,0.469C65.934,36.639,66.145,36.85,66.402,36.85z"/>
	<path d="M71.875,100.232h-3.75c-1.191,0-2.156,0.965-2.156,2.152c0,1.191,0.965,2.15,2.156,2.15h3.75
		c1.191,0,2.156-0.959,2.156-2.15C74.031,101.197,73.066,100.232,71.875,100.232z"/>
	<rect x="52.245" y="41.467" width="35.509" height="57.062"/>
	<path d="M70,0C31.34,0,0,31.34,0,70s31.34,70,70,70s70-31.34,70-70S108.66,0,70,0z M90.031,101.893
		c0,2.969-2.406,5.375-5.375,5.375H55.344c-2.969,0-5.375-2.406-5.375-5.375V38.107c0-2.969,2.406-5.375,5.375-5.375h29.312
		c2.969,0,5.375,2.406,5.375,5.375V101.893z"/>
</g>
</svg>
