<?xml version="1.0" encoding="utf-8"?>
<!-- Generator: Adobe Illustrator 16.0.0, SVG Export Plug-In . SVG Version: 6.00 Build 0)  -->
<!DOCTYPE svg PUBLIC "-//W3C//DTD SVG 1.1//EN" "http://www.w3.org/Graphics/SVG/1.1/DTD/svg11.dtd">
<svg version="1.1" id="Layer_1" xmlns="http://www.w3.org/2000/svg" xmlns:xlink="http://www.w3.org/1999/xlink" x="0px" y="0px"
	 width="40px" height="40px" viewBox="0 0 40 40" enable-background="new 0 0 40 40" xml:space="preserve">
<circle fill-rule="evenodd" clip-rule="evenodd" fill="#49A2AF" cx="20" cy="20" r="20"/>
<g id="mMT2N0.tif_2_">
	<g>
		<path fill="#FFFFFF" d="M16.826,28.146c-0.362,0-0.723,0-1.083,0c-0.027-0.004-0.056-0.012-0.084-0.014
			c-0.353-0.014-0.703-0.049-1.051-0.1c-0.696-0.1-1.379-0.26-2.046-0.484c-0.882-0.295-1.717-0.69-2.505-1.186
			c-0.02-0.013-0.039-0.027-0.058-0.042c0-0.005,0.004-0.01,0.005-0.015c1.075,0.117,2.138,0.036,3.179-0.256
			c1.042-0.292,1.988-0.772,2.839-1.443c-0.572-0.025-1.116-0.151-1.634-0.393c-0.518-0.242-0.967-0.577-1.346-1.006
			c-0.377-0.427-0.656-0.911-0.837-1.466c0.623,0.114,1.227,0.094,1.823-0.068c-2.101-0.457-3.323-2.358-3.255-4.083
			c0.281,0.152,0.574,0.275,0.882,0.36s0.622,0.137,0.94,0.14c-0.873-0.624-1.454-1.446-1.692-2.495
			c-0.237-1.048-0.079-2.039,0.45-2.988c0.524,0.642,1.102,1.215,1.737,1.728c0.638,0.513,1.317,0.955,2.046,1.325
			c0.731,0.371,1.492,0.662,2.285,0.87c0.786,0.21,1.588,0.336,2.41,0.375c-0.054-0.243-0.087-0.475-0.101-0.709
			c-0.036-0.696,0.093-1.361,0.392-1.991c0.617-1.296,1.849-2.168,3.277-2.324c0.066-0.008,0.138-0.019,0.206-0.028
			c0.157,0,0.313,0,0.471,0c0.023,0.005,0.044,0.012,0.066,0.015c0.11,0.013,0.22,0.02,0.327,0.036
			c0.889,0.145,1.654,0.531,2.289,1.17c0.065,0.066,0.123,0.077,0.209,0.058c0.857-0.186,1.663-0.497,2.422-0.936
			c0.016-0.009,0.033-0.017,0.065-0.031c-0.33,0.969-0.919,1.709-1.765,2.254c0.045,0.002,0.088-0.003,0.131-0.01
			c0.716-0.099,1.406-0.292,2.074-0.574c0.033-0.015,0.068-0.026,0.103-0.038c0,0.005,0,0.01,0,0.015
			c-0.005,0.003-0.011,0.004-0.014,0.007c-0.534,0.799-1.194,1.481-1.968,2.053c-0.044,0.03-0.06,0.062-0.059,0.114
			c0.013,0.369,0.013,0.736-0.01,1.104c-0.033,0.571-0.108,1.137-0.229,1.696c-0.343,1.626-0.986,3.125-1.935,4.49
			c-1.069,1.532-2.422,2.746-4.085,3.605c-1.491,0.771-3.082,1.165-4.754,1.25C16.908,28.135,16.868,28.141,16.826,28.146z"/>
	</g>
</g>
</svg>
