<?xml version="1.0" encoding="utf-8"?>
<!-- Generator: Adobe Illustrator 16.0.0, SVG Export Plug-In . SVG Version: 6.00 Build 0)  -->
<!DOCTYPE svg PUBLIC "-//W3C//DTD SVG 1.1//EN" "http://www.w3.org/Graphics/SVG/1.1/DTD/svg11.dtd">
<svg version="1.1" id="Layer_1" xmlns="http://www.w3.org/2000/svg" xmlns:xlink="http://www.w3.org/1999/xlink" x="0px" y="0px"
	 width="40px" height="40px" viewBox="0 0 40 40" enable-background="new 0 0 40 40" xml:space="preserve">
<circle fill-rule="evenodd" clip-rule="evenodd" fill="#49A2AF" cx="20" cy="20" r="20"/>
<g id="b7UKlG.tif_1_">
	<g>
		<path fill="#FFFFFF" d="M8,22.209c0-1.468,0-2.937,0-4.406c0.013-0.034,0.036-0.068,0.037-0.103
			c0.035-0.787,0.074-1.573,0.103-2.36c0.026-0.736,0.084-1.465,0.427-2.136c0.591-1.153,1.486-1.917,2.811-2.007
			c1.338-0.09,2.681-0.099,4.02-0.146c0.27-0.009,0.538-0.03,0.807-0.045c2.531,0,5.062,0,7.594,0
			c0.066,0.013,0.131,0.036,0.197,0.038c1.037,0.028,2.074,0.049,3.11,0.082c0.584,0.019,1.176,0.005,1.75,0.095
			c1.591,0.248,2.839,1.651,2.954,3.3c0.073,1.042,0.103,2.087,0.154,3.13c0.003,0.066,0.024,0.133,0.037,0.199
			c0,1.375,0,2.75,0,4.125c-0.013,0.051-0.035,0.102-0.037,0.152c-0.039,0.889-0.079,1.777-0.109,2.667
			c-0.024,0.684-0.1,1.354-0.411,1.977c-0.585,1.17-1.489,1.968-2.82,2.032c-2.4,0.116-4.806,0.187-7.208,0.19
			c-2.881,0.006-5.761-0.071-8.641-0.125c-0.615-0.012-1.248,0.008-1.84-0.133c-1.537-0.367-2.41-1.437-2.682-2.946
			c-0.16-0.893-0.138-1.817-0.197-2.729C8.036,22.777,8.019,22.493,8,22.209z M24.5,19.987c-2.279-1.543-4.522-3.062-6.786-4.594
			c0,3.084,0,6.12,0,9.194C19.985,23.048,22.23,21.525,24.5,19.987z"/>
	</g>
</g>
</svg>
